<svg width="16" height="16" viewBox="0 0 16 16" fill="none" xmlns="http://www.w3.org/2000/svg">
<path d="M7.98636 1.01367C5.75926 1.01367 3.94738 2.82558 3.94738 5.05264C3.94738 6.43211 4.64271 7.65208 5.70113 8.38103C4.71295 8.72204 3.80722 9.28532 3.0463 10.0462C1.72671 11.3659 1 13.1203 1 14.9864H2.09162C2.09162 11.736 4.73598 9.09164 7.98636 9.09164C10.2134 9.09164 12.0253 7.27974 12.0253 5.05264C12.0253 2.82555 10.2134 1.01367 7.98636 1.01367ZM7.98636 8.00003C6.36118 8.00003 5.039 6.67785 5.039 5.05267C5.039 3.4275 6.36118 2.10529 7.98636 2.10529C9.61153 2.10529 10.9337 3.42747 10.9337 5.05267C10.9337 6.67788 9.61153 8.00003 7.98636 8.00003Z" fill="white" stroke="white"/>
<path d="M12.7078 11.602V9.30957H11.6162V11.602H9.32373V12.6936H11.6162V14.986H12.7078V12.6936H15.0002V11.602H12.7078Z" fill="white" stroke="white"/>
</svg>
