<svg width="100" height="100" viewBox="0 0 100 100" fill="none" xmlns="http://www.w3.org/2000/svg">
<g filter="url(#filter0_d)">
<path d="M37 16.5C37 13.0522 38.3696 9.74559 40.8076 7.30761C43.2456 4.86964 46.5522 3.5 50 3.5C53.4478 3.5 56.7544 4.86964 59.1924 7.30761C61.6304 9.74559 63 13.0522 63 16.5C63 18.18 64.32 19.5 66 19.5C67.68 19.5 69 18.18 69 16.5V13.5H75V16.5C75 18.887 74.0518 21.1761 72.364 22.864C70.6762 24.5518 68.387 25.5 66 25.5C63.6131 25.5 61.3239 24.5518 59.6361 22.864C57.9482 21.1761 57 18.887 57 16.5C57 14.6435 56.2625 12.863 54.9498 11.5503C53.637 10.2375 51.8565 9.5 50 9.5C48.1435 9.5 46.363 10.2375 45.0503 11.5503C43.7375 12.863 43 14.6435 43 16.5H48V21.66C59.56 25.1 68 35.82 68 48.5C68 55.9261 65.05 63.048 59.799 68.299C54.548 73.55 47.4261 76.5 40 76.5C32.5739 76.5 25.452 73.55 20.201 68.299C14.95 63.048 12 55.9261 12 48.5C12 35.82 20.44 25.1 32 21.66V16.5H37ZM80 16.5H88V20.5H80V16.5ZM68 8.5V0.5H72V8.5H68ZM75.64 10.02L81.32 4.34L84.16 7.18L78.48 12.86L75.64 10.02V10.02Z" fill="url(#paint0_linear)"/>
</g>
<defs>
<filter id="filter0_d" x="-1.90735e-06" y="0.5" width="100" height="100" filterUnits="userSpaceOnUse" color-interpolation-filters="sRGB">
<feFlood flood-opacity="0" result="BackgroundImageFix"/>
<feColorMatrix in="SourceAlpha" type="matrix" values="0 0 0 0 0 0 0 0 0 0 0 0 0 0 0 0 0 0 127 0"/>
<feOffset dy="12"/>
<feGaussianBlur stdDeviation="6"/>
<feColorMatrix type="matrix" values="0 0 0 0 0.8 0 0 0 0 0.254902 0 0 0 0 0.454902 0 0 0 0.2 0"/>
<feBlend mode="normal" in2="BackgroundImageFix" result="effect1_dropShadow"/>
<feBlend mode="normal" in="SourceGraphic" in2="effect1_dropShadow" result="shape"/>
</filter>
<linearGradient id="paint0_linear" x1="50" y1="0.5" x2="50" y2="76.5" gradientUnits="userSpaceOnUse">
<stop stop-color="#E31F67"/>
<stop offset="1" stop-color="#D33871"/>
</linearGradient>
</defs>
</svg>
