<svg width="34" height="34" viewBox="0 0 34 34" fill="none" xmlns="http://www.w3.org/2000/svg">
<g filter="url(#filter0_d)">
<path d="M12.3333 5.33333C12.3333 4.18406 12.7899 3.08186 13.6025 2.2692C14.4152 1.45655 15.5174 1 16.6667 1C17.8159 1 18.9181 1.45655 19.7308 2.2692C20.5435 3.08186 21 4.18406 21 5.33333C21 5.89333 21.44 6.33333 22 6.33333C22.56 6.33333 23 5.89333 23 5.33333V4.33333H25V5.33333C25 6.12898 24.6839 6.89205 24.1213 7.45466C23.5587 8.01726 22.7957 8.33333 22 8.33333C21.2044 8.33333 20.4413 8.01726 19.8787 7.45466C19.3161 6.89205 19 6.12898 19 5.33333C19 4.7145 18.7542 4.121 18.3166 3.68342C17.879 3.24583 17.2855 3 16.6667 3C16.0478 3 15.4543 3.24583 15.0168 3.68342C14.5792 4.121 14.3333 4.7145 14.3333 5.33333H16V7.05333C19.8533 8.2 22.6667 11.7733 22.6667 16C22.6667 18.4754 21.6833 20.8493 19.933 22.5997C18.1827 24.35 15.8087 25.3333 13.3333 25.3333C10.858 25.3333 8.48401 24.35 6.73367 22.5997C4.98333 20.8493 4 18.4754 4 16C4 11.7733 6.81333 8.2 10.6667 7.05333V5.33333H12.3333ZM26.6667 5.33333H29.3333V6.66667H26.6667V5.33333ZM22.6667 2.66667V0H24V2.66667H22.6667ZM25.2133 3.17333L27.1067 1.28L28.0533 2.22667L26.16 4.12L25.2133 3.17333Z" fill="url(#paint0_linear)"/>
</g>
<defs>
<filter id="filter0_d" x="0" y="0" width="33.3333" height="33.3333" filterUnits="userSpaceOnUse" color-interpolation-filters="sRGB">
<feFlood flood-opacity="0" result="BackgroundImageFix"/>
<feColorMatrix in="SourceAlpha" type="matrix" values="0 0 0 0 0 0 0 0 0 0 0 0 0 0 0 0 0 0 127 0"/>
<feOffset dy="4"/>
<feGaussianBlur stdDeviation="2"/>
<feColorMatrix type="matrix" values="0 0 0 0 0.8 0 0 0 0 0.254902 0 0 0 0 0.454902 0 0 0 0.2 0"/>
<feBlend mode="normal" in2="BackgroundImageFix" result="effect1_dropShadow"/>
<feBlend mode="normal" in="SourceGraphic" in2="effect1_dropShadow" result="shape"/>
</filter>
<linearGradient id="paint0_linear" x1="16.6667" y1="0" x2="16.6667" y2="25.3333" gradientUnits="userSpaceOnUse">
<stop stop-color="#E31F67"/>
<stop offset="1" stop-color="#D33871"/>
</linearGradient>
</defs>
</svg>
