<svg width="102" height="102" viewBox="0 0 102 102" fill="none" xmlns="http://www.w3.org/2000/svg">
<g filter="url(#filter0_d)">
<path d="M51 12C52.736 12 54.4008 12.6896 55.6283 13.9171C56.8558 15.1446 57.5455 16.8095 57.5455 18.5455C57.5455 20.9673 56.2364 23.0945 54.2727 24.2073V28.3636H57.5455C63.6213 28.3636 69.4483 30.7773 73.7446 35.0736C78.0409 39.3698 80.4545 45.1969 80.4545 51.2727H83.7273C84.5953 51.2727 85.4277 51.6175 86.0414 52.2313C86.6552 52.845 87 53.6775 87 54.5455V64.3636C87 65.2316 86.6552 66.0641 86.0414 66.6778C85.4277 67.2916 84.5953 67.6364 83.7273 67.6364H80.4545V70.9091C80.4545 72.6451 79.7649 74.3099 78.5374 75.5374C77.3099 76.7649 75.6451 77.4545 73.9091 77.4545H28.0909C26.3549 77.4545 24.6901 76.7649 23.4626 75.5374C22.2351 74.3099 21.5455 72.6451 21.5455 70.9091V67.6364H18.2727C17.4047 67.6364 16.5723 67.2916 15.9586 66.6778C15.3448 66.0641 15 65.2316 15 64.3636V54.5455C15 53.6775 15.3448 52.845 15.9586 52.2313C16.5723 51.6175 17.4047 51.2727 18.2727 51.2727H21.5455C21.5455 45.1969 23.9591 39.3698 28.2554 35.0736C32.5517 30.7773 38.3787 28.3636 44.4545 28.3636H47.7273V24.2073C45.7636 23.0945 44.4545 20.9673 44.4545 18.5455C44.4545 16.8095 45.1442 15.1446 46.3717 13.9171C47.5992 12.6896 49.264 12 51 12ZM36.2727 48C34.1028 48 32.0217 48.862 30.4873 50.3964C28.9529 51.9308 28.0909 54.0119 28.0909 56.1818C28.0909 58.3518 28.9529 60.4328 30.4873 61.9672C32.0217 63.5016 34.1028 64.3636 36.2727 64.3636C38.4427 64.3636 40.5238 63.5016 42.0581 61.9672C43.5925 60.4328 44.4545 58.3518 44.4545 56.1818C44.4545 54.0119 43.5925 51.9308 42.0581 50.3964C40.5238 48.862 38.4427 48 36.2727 48ZM65.7273 48C63.5573 48 61.4762 48.862 59.9419 50.3964C58.4075 51.9308 57.5455 54.0119 57.5455 56.1818C57.5455 58.3518 58.4075 60.4328 59.9419 61.9672C61.4762 63.5016 63.5573 64.3636 65.7273 64.3636C67.8972 64.3636 69.9783 63.5016 71.5127 61.9672C73.0471 60.4328 73.9091 58.3518 73.9091 56.1818C73.9091 54.0119 73.0471 51.9308 71.5127 50.3964C69.9783 48.862 67.8972 48 65.7273 48Z" fill="url(#paint0_linear)"/>
</g>
<defs>
<filter id="filter0_d" x="3" y="12" width="96" height="89.4545" filterUnits="userSpaceOnUse" color-interpolation-filters="sRGB">
<feFlood flood-opacity="0" result="BackgroundImageFix"/>
<feColorMatrix in="SourceAlpha" type="matrix" values="0 0 0 0 0 0 0 0 0 0 0 0 0 0 0 0 0 0 127 0"/>
<feOffset dy="12"/>
<feGaussianBlur stdDeviation="6"/>
<feColorMatrix type="matrix" values="0 0 0 0 0.313725 0 0 0 0 0.431372 0 0 0 0 0.905882 0 0 0 0.2 0"/>
<feBlend mode="normal" in2="BackgroundImageFix" result="effect1_dropShadow"/>
<feBlend mode="normal" in="SourceGraphic" in2="effect1_dropShadow" result="shape"/>
</filter>
<linearGradient id="paint0_linear" x1="51" y1="12" x2="51" y2="77.4545" gradientUnits="userSpaceOnUse">
<stop stop-color="#5071E6"/>
<stop offset="1" stop-color="#5068E9"/>
</linearGradient>
</defs>
</svg>
