<svg width="32" height="31" viewBox="0 0 32 31" fill="none" xmlns="http://www.w3.org/2000/svg">
<g filter="url(#filter0_d)">
<path d="M16 0.611328C16.5787 0.611328 17.1336 0.841197 17.5428 1.25037C17.9519 1.65954 18.1818 2.21449 18.1818 2.79315C18.1818 3.60042 17.7455 4.30951 17.0909 4.68042V6.06587H18.1818C20.2071 6.06587 22.1494 6.87042 23.5815 8.30251C25.0136 9.73461 25.8182 11.6769 25.8182 13.7022H26.9091C27.1984 13.7022 27.4759 13.8172 27.6805 14.0218C27.8851 14.2263 28 14.5038 28 14.7931V18.0659C28 18.3552 27.8851 18.6327 27.6805 18.8373C27.4759 19.0418 27.1984 19.1568 26.9091 19.1568H25.8182V20.2477C25.8182 20.8263 25.5883 21.3813 25.1791 21.7905C24.77 22.1996 24.215 22.4295 23.6364 22.4295H8.36364C7.78498 22.4295 7.23003 22.1996 6.82086 21.7905C6.41169 21.3813 6.18182 20.8263 6.18182 20.2477V19.1568H5.09091C4.80158 19.1568 4.5241 19.0418 4.31952 18.8373C4.11493 18.6327 4 18.3552 4 18.0659V14.7931C4 14.5038 4.11493 14.2263 4.31952 14.0218C4.5241 13.8172 4.80158 13.7022 5.09091 13.7022H6.18182C6.18182 11.6769 6.98636 9.73461 8.41846 8.30251C9.85055 6.87042 11.7929 6.06587 13.8182 6.06587H14.9091V4.68042C14.2545 4.30951 13.8182 3.60042 13.8182 2.79315C13.8182 2.21449 14.0481 1.65954 14.4572 1.25037C14.8664 0.841197 15.4213 0.611328 16 0.611328ZM11.0909 12.6113C10.3676 12.6113 9.6739 12.8987 9.16244 13.4101C8.65097 13.9216 8.36364 14.6153 8.36364 15.3386C8.36364 16.0619 8.65097 16.7556 9.16244 17.2671C9.6739 17.7785 10.3676 18.0659 11.0909 18.0659C11.8142 18.0659 12.5079 17.7785 13.0194 17.2671C13.5308 16.7556 13.8182 16.0619 13.8182 15.3386C13.8182 14.6153 13.5308 13.9216 13.0194 13.4101C12.5079 12.8987 11.8142 12.6113 11.0909 12.6113ZM20.9091 12.6113C20.1858 12.6113 19.4921 12.8987 18.9806 13.4101C18.4692 13.9216 18.1818 14.6153 18.1818 15.3386C18.1818 16.0619 18.4692 16.7556 18.9806 17.2671C19.4921 17.7785 20.1858 18.0659 20.9091 18.0659C21.6324 18.0659 22.3261 17.7785 22.8376 17.2671C23.349 16.7556 23.6364 16.0619 23.6364 15.3386C23.6364 14.6153 23.349 13.9216 22.8376 13.4101C22.3261 12.8987 21.6324 12.6113 20.9091 12.6113Z" fill="url(#paint0_linear)"/>
</g>
<defs>
<filter id="filter0_d" x="0" y="0.611328" width="32" height="29.8182" filterUnits="userSpaceOnUse" color-interpolation-filters="sRGB">
<feFlood flood-opacity="0" result="BackgroundImageFix"/>
<feColorMatrix in="SourceAlpha" type="matrix" values="0 0 0 0 0 0 0 0 0 0 0 0 0 0 0 0 0 0 127 0"/>
<feOffset dy="4"/>
<feGaussianBlur stdDeviation="2"/>
<feColorMatrix type="matrix" values="0 0 0 0 0.313725 0 0 0 0 0.431372 0 0 0 0 0.905882 0 0 0 0.2 0"/>
<feBlend mode="normal" in2="BackgroundImageFix" result="effect1_dropShadow"/>
<feBlend mode="normal" in="SourceGraphic" in2="effect1_dropShadow" result="shape"/>
</filter>
<linearGradient id="paint0_linear" x1="16" y1="0.611328" x2="16" y2="22.4295" gradientUnits="userSpaceOnUse">
<stop stop-color="#5071E6"/>
<stop offset="1" stop-color="#5068E9"/>
</linearGradient>
</defs>
</svg>
