<svg width="110" height="81" viewBox="0 0 110 81" fill="none" xmlns="http://www.w3.org/2000/svg">
<g filter="url(#filter0_d)">
<path d="M12 6C12 2.68629 14.6863 0 18 0H91.5C94.8137 0 97.5 2.68629 97.5 6V51C97.5 54.3137 94.8137 57 91.5 57H18C14.6863 57 12 54.3137 12 51V6ZM54.75 14.25C58.5293 14.25 62.1539 15.7513 64.8263 18.4237C67.4987 21.0961 69 24.7207 69 28.5C69 32.2793 67.4987 35.9039 64.8263 38.5763C62.1539 41.2487 58.5293 42.75 54.75 42.75C50.9707 42.75 47.3461 41.2487 44.6737 38.5763C42.0013 35.9039 40.5 32.2793 40.5 28.5C40.5 24.7207 42.0013 21.0961 44.6737 18.4237C47.3461 15.7513 50.9707 14.25 54.75 14.25ZM31 9.5C31 12.0196 29.9991 14.4359 28.2175 16.2175C26.4359 17.9991 24.0196 19 21.5 19V38C24.0196 38 26.4359 39.0009 28.2175 40.7825C29.9991 42.5641 31 44.9805 31 47.5H78.5C78.5 44.9805 79.5009 42.5641 81.2825 40.7825C83.0641 39.0009 85.4805 38 88 38V19C85.4805 19 83.0641 17.9991 81.2825 16.2175C79.5009 14.4359 78.5 12.0196 78.5 9.5H31Z" fill="url(#paint0_linear)"/>
</g>
<defs>
<filter id="filter0_d" x="-1.90735e-06" y="0" width="109.5" height="81" filterUnits="userSpaceOnUse" color-interpolation-filters="sRGB">
<feFlood flood-opacity="0" result="BackgroundImageFix"/>
<feColorMatrix in="SourceAlpha" type="matrix" values="0 0 0 0 0 0 0 0 0 0 0 0 0 0 0 0 0 0 127 0"/>
<feOffset dy="12"/>
<feGaussianBlur stdDeviation="6"/>
<feColorMatrix type="matrix" values="0 0 0 0 0.288826 0 0 0 0 0.829167 0 0 0 0 0.24184 0 0 0 0.2 0"/>
<feBlend mode="normal" in2="BackgroundImageFix" result="effect1_dropShadow"/>
<feBlend mode="normal" in="SourceGraphic" in2="effect1_dropShadow" result="shape"/>
</filter>
<linearGradient id="paint0_linear" x1="12" y1="0" x2="97.5" y2="57" gradientUnits="userSpaceOnUse">
<stop stop-color="#36DE0C"/>
<stop offset="1" stop-color="#41B624"/>
</linearGradient>
</defs>
</svg>
