<svg width="32" height="31" viewBox="0 0 32 31" fill="none" xmlns="http://www.w3.org/2000/svg">
<g filter="url(#filter0_d)">
<path d="M14 0.612692C19.5227 0.612692 24 4.31769 24 8.8886C24 13.4595 19.5227 17.1645 14 17.1645C13.4789 17.1649 12.9583 17.1312 12.4413 17.0636C10.2933 19.2522 7.81333 19.6436 5.33333 19.7022V19.1663C6.672 18.4981 7.75067 17.2818 7.75067 15.8909C7.75067 15.6972 7.736 15.5063 7.708 15.3195C5.44667 13.8018 4 11.485 4 8.88724C4 4.31633 8.47733 0.611328 14 0.611328V0.612692ZM24.7507 19.1636C24.7507 20.3554 25.5067 21.3986 26.668 21.9713V22.4309C24.52 22.3818 22.548 22.045 20.6853 20.17C20.2453 20.2259 19.7933 20.2559 19.3347 20.2559C17.3453 20.2559 15.5133 19.7077 14.0507 18.7845C17.0653 18.7736 19.9107 17.7863 22.068 16C23.1199 15.1437 23.9881 14.0752 24.6187 12.8609C25.3548 11.4376 25.6804 9.82971 25.5573 8.22451C27.0693 9.50087 28 11.2422 28 13.1609C28 15.3877 26.7467 17.3731 24.7867 18.6741C24.7625 18.8361 24.7505 18.9997 24.7507 19.1636Z" fill="url(#paint0_linear)"/>
</g>
<defs>
<filter id="filter0_d" x="0" y="0.611328" width="32" height="29.8195" filterUnits="userSpaceOnUse" color-interpolation-filters="sRGB">
<feFlood flood-opacity="0" result="BackgroundImageFix"/>
<feColorMatrix in="SourceAlpha" type="matrix" values="0 0 0 0 0 0 0 0 0 0 0 0 0 0 0 0 0 0 127 0"/>
<feOffset dy="4"/>
<feGaussianBlur stdDeviation="2"/>
<feColorMatrix type="matrix" values="0 0 0 0 0.313725 0 0 0 0 0.431372 0 0 0 0 0.905882 0 0 0 0.2 0"/>
<feBlend mode="normal" in2="BackgroundImageFix" result="effect1_dropShadow"/>
<feBlend mode="normal" in="SourceGraphic" in2="effect1_dropShadow" result="shape"/>
</filter>
<linearGradient id="paint0_linear" x1="16" y1="0.611328" x2="16" y2="22.4309" gradientUnits="userSpaceOnUse">
<stop stop-color="#5071E6"/>
<stop offset="1" stop-color="#5068E9"/>
</linearGradient>
</defs>
</svg>
