<svg width="31" height="33" viewBox="0 0 31 33" fill="none" xmlns="http://www.w3.org/2000/svg">
<g filter="url(#filter0_d)">
<path d="M4 5.725V20.8375C4 23.125 5.875 25 8.1625 25H15.775C16.9 25 17.9625 24.55 18.7375 23.75L26.9125 15.45C26.9125 15.45 25.6 14.1625 25.5625 14.15C25.3669 13.9758 25.1208 13.8686 24.86 13.8439C24.5992 13.8191 24.3374 13.8782 24.1125 14.0125C24.075 14.025 19.625 16.575 19.625 16.575V4.1625C19.625 3.7481 19.4604 3.35067 19.1674 3.05765C18.8743 2.76462 18.4769 2.6 18.0625 2.6C17.6481 2.6 17.2507 2.76462 16.9576 3.05765C16.6646 3.35067 16.5 3.7481 16.5 4.1625V11.4625H15.4625V1.5625C15.4625 1.1481 15.2979 0.750671 15.0049 0.457646C14.7118 0.16462 14.3144 0 13.9 0C13.4856 0 13.0882 0.16462 12.7951 0.457646C12.5021 0.750671 12.3375 1.1481 12.3375 1.5625V11.4625H11.2875V2.6C11.2875 2.1856 11.1229 1.78817 10.8299 1.49515C10.5368 1.20212 10.1394 1.0375 9.725 1.0375C9.3106 1.0375 8.91317 1.20212 8.62015 1.49515C8.32712 1.78817 8.1625 2.1856 8.1625 2.6V11.4625H7.125V5.725C7.125 5.3106 6.96038 4.91317 6.66735 4.62015C6.37433 4.32712 5.9769 4.1625 5.5625 4.1625C5.1481 4.1625 4.75067 4.32712 4.45765 4.62015C4.16462 4.91317 4 5.3106 4 5.725Z" fill="url(#paint0_linear)"/>
</g>
<defs>
<filter id="filter0_d" x="0" y="0" width="30.9125" height="33" filterUnits="userSpaceOnUse" color-interpolation-filters="sRGB">
<feFlood flood-opacity="0" result="BackgroundImageFix"/>
<feColorMatrix in="SourceAlpha" type="matrix" values="0 0 0 0 0 0 0 0 0 0 0 0 0 0 0 0 0 0 127 0"/>
<feOffset dy="4"/>
<feGaussianBlur stdDeviation="2"/>
<feColorMatrix type="matrix" values="0 0 0 0 0.313725 0 0 0 0 0.431372 0 0 0 0 0.905882 0 0 0 0.2 0"/>
<feBlend mode="normal" in2="BackgroundImageFix" result="effect1_dropShadow"/>
<feBlend mode="normal" in="SourceGraphic" in2="effect1_dropShadow" result="shape"/>
</filter>
<linearGradient id="paint0_linear" x1="15" y1="1.76486e-07" x2="15" y2="25" gradientUnits="userSpaceOnUse">
<stop stop-color="#7E9BFF"/>
<stop offset="1" stop-color="#5068E9"/>
</linearGradient>
</defs>
</svg>
