<svg width="118" height="118" viewBox="0 0 118 118" fill="none" xmlns="http://www.w3.org/2000/svg">
<g filter="url(#filter0_d)">
<path d="M21 58C21 37.5655 37.5655 21 58 21H60C80.4345 21 97 37.5655 97 58V60C97 80.4345 80.4345 97 60 97H26C23.2386 97 21 94.7614 21 92V58Z" fill="url(#paint0_linear)"/>
<path d="M21 58C21 37.5655 37.5655 21 58 21H60C80.4345 21 97 37.5655 97 58V60C97 80.4345 80.4345 97 60 97H26C23.2386 97 21 94.7614 21 92V58Z" fill="white"/>
<path d="M21 58C21 37.5655 37.5655 21 58 21H60C80.4345 21 97 37.5655 97 58V60C97 80.4345 80.4345 97 60 97H26C23.2386 97 21 94.7614 21 92V58Z" stroke="white" stroke-width="2"/>
</g>
<defs>
<filter id="filter0_d" x="0" y="0" width="118" height="118" filterUnits="userSpaceOnUse" color-interpolation-filters="sRGB">
<feFlood flood-opacity="0" result="BackgroundImageFix"/>
<feColorMatrix in="SourceAlpha" type="matrix" values="0 0 0 0 0 0 0 0 0 0 0 0 0 0 0 0 0 0 127 0"/>
<feOffset/>
<feGaussianBlur stdDeviation="10"/>
<feColorMatrix type="matrix" values="0 0 0 0 0.14625 0 0 0 0 0.2943 0 0 0 0 0.675 0 0 0 0.08 0"/>
<feBlend mode="normal" in2="BackgroundImageFix" result="effect1_dropShadow"/>
<feBlend mode="normal" in="SourceGraphic" in2="effect1_dropShadow" result="shape"/>
</filter>
<linearGradient id="paint0_linear" x1="97" y1="34.7411" x2="11.238" y2="61.9814" gradientUnits="userSpaceOnUse">
<stop stop-color="#F3F5FE"/>
<stop offset="1" stop-color="#E9F1FE"/>
</linearGradient>
</defs>
</svg>
