<svg width="120" height="120" viewBox="0 0 120 120" fill="none" xmlns="http://www.w3.org/2000/svg">
<g filter="url(#filter0_d)">
<path d="M60 18C63.2489 18 66.3647 19.2906 68.6621 21.5879C70.9594 23.8853 72.25 27.0011 72.25 30.25C72.25 33.4989 70.9594 36.6147 68.6621 38.9121C66.3647 41.2094 63.2489 42.5 60 42.5C56.7511 42.5 53.6353 41.2094 51.3379 38.9121C49.0406 36.6147 47.75 33.4989 47.75 30.25C47.75 27.0011 49.0406 23.8853 51.3379 21.5879C53.6353 19.2906 56.7511 18 60 18ZM35.5 26.75C37.46 26.75 39.28 27.275 40.855 28.22C40.33 33.225 41.8 38.195 44.81 42.08C43.06 45.44 39.56 47.75 35.5 47.75C32.7152 47.75 30.0445 46.6438 28.0754 44.6746C26.1062 42.7055 25 40.0348 25 37.25C25 34.4652 26.1062 31.7945 28.0754 29.8254C30.0445 27.8562 32.7152 26.75 35.5 26.75ZM84.5 26.75C87.2848 26.75 89.9555 27.8562 91.9246 29.8254C93.8938 31.7945 95 34.4652 95 37.25C95 40.0348 93.8938 42.7055 91.9246 44.6746C89.9555 46.6438 87.2848 47.75 84.5 47.75C80.44 47.75 76.94 45.44 75.19 42.08C78.2416 38.1405 79.658 33.1767 79.145 28.22C80.72 27.275 82.54 26.75 84.5 26.75ZM37.25 62.625C37.25 55.38 47.435 49.5 60 49.5C72.565 49.5 82.75 55.38 82.75 62.625C82.75 62.625 83.0508 66.377 82.75 68.75C81.2212 80.8108 72.1573 90 60 90C47.8427 90 38.7788 80.8108 37.25 68.75C36.9492 66.377 37.25 62.625 37.25 62.625ZM18 68.75V63.5C18 58.635 24.615 54.54 33.575 53.35C31.51 55.73 30.25 59.02 30.25 62.625C30.25 66.23 33.575 79.5 33.575 79.5L18 68.75ZM102 68.75L85.5 79.5C85.5 79.5 89.75 66.23 89.75 62.625C89.75 59.02 88.49 55.73 86.425 53.35C95.385 54.54 102 58.635 102 63.5V68.75Z" fill="url(#paint0_linear)"/>
</g>
<defs>
<filter id="filter0_d" x="6" y="18" width="108" height="96" filterUnits="userSpaceOnUse" color-interpolation-filters="sRGB">
<feFlood flood-opacity="0" result="BackgroundImageFix"/>
<feColorMatrix in="SourceAlpha" type="matrix" values="0 0 0 0 0 0 0 0 0 0 0 0 0 0 0 0 0 0 127 0"/>
<feOffset dy="12"/>
<feGaussianBlur stdDeviation="6"/>
<feColorMatrix type="matrix" values="0 0 0 0 0.8 0 0 0 0 0.254902 0 0 0 0 0.454902 0 0 0 0.2 0"/>
<feBlend mode="normal" in2="BackgroundImageFix" result="effect1_dropShadow"/>
<feBlend mode="normal" in="SourceGraphic" in2="effect1_dropShadow" result="shape"/>
</filter>
<linearGradient id="paint0_linear" x1="60" y1="18" x2="60" y2="90" gradientUnits="userSpaceOnUse">
<stop stop-color="#E31F67"/>
<stop offset="1" stop-color="#D33871"/>
</linearGradient>
</defs>
</svg>
