<svg width="36" height="32" viewBox="0 0 36 32" fill="none" xmlns="http://www.w3.org/2000/svg">
<g filter="url(#filter0_d)">
<path d="M18 0C19.083 0 20.1216 0.430207 20.8874 1.19598C21.6531 1.96175 22.0833 3.00037 22.0833 4.08333C22.0833 5.1663 21.6531 6.20491 20.8874 6.97069C20.1216 7.73646 19.083 8.16667 18 8.16667C16.917 8.16667 15.8784 7.73646 15.1126 6.97069C14.3469 6.20491 13.9167 5.1663 13.9167 4.08333C13.9167 3.00037 14.3469 1.96175 15.1126 1.19598C15.8784 0.430207 16.917 0 18 0ZM9.83333 2.91667C10.4867 2.91667 11.0933 3.09167 11.6183 3.40667C11.4433 5.075 11.9333 6.73167 12.9367 8.02667C12.3533 9.14667 11.1867 9.91667 9.83333 9.91667C8.90508 9.91667 8.01484 9.54792 7.35846 8.89154C6.70208 8.23516 6.33333 7.34492 6.33333 6.41667C6.33333 5.48841 6.70208 4.59817 7.35846 3.94179C8.01484 3.28541 8.90508 2.91667 9.83333 2.91667ZM26.1667 2.91667C27.0949 2.91667 27.9852 3.28541 28.6415 3.94179C29.2979 4.59817 29.6667 5.48841 29.6667 6.41667C29.6667 7.34492 29.2979 8.23516 28.6415 8.89154C27.9852 9.54792 27.0949 9.91667 26.1667 9.91667C24.8133 9.91667 23.6467 9.14667 23.0633 8.02667C24.0805 6.71349 24.5527 5.0589 24.3817 3.40667C24.9067 3.09167 25.5133 2.91667 26.1667 2.91667ZM10.4167 14.875C10.4167 12.46 13.8117 10.5 18 10.5C22.1883 10.5 25.5833 12.46 25.5833 14.875C25.5833 14.875 25.6836 16.1257 25.5833 16.9167C25.0737 20.9369 22.0524 24 18 24C13.9476 24 10.9263 20.9369 10.4167 16.9167C10.3164 16.1257 10.4167 14.875 10.4167 14.875ZM4 16.9167V15.1667C4 13.545 6.205 12.18 9.19167 11.7833C8.50333 12.5767 8.08333 13.6733 8.08333 14.875C8.08333 16.0767 9.19167 20.5 9.19167 20.5L4 16.9167ZM32 16.9167L26.5 20.5C26.5 20.5 27.9167 16.0767 27.9167 14.875C27.9167 13.6733 27.4967 12.5767 26.8083 11.7833C29.795 12.18 32 13.545 32 15.1667V16.9167Z" fill="url(#paint0_linear)"/>
</g>
<defs>
<filter id="filter0_d" x="0" y="0" width="36" height="32" filterUnits="userSpaceOnUse" color-interpolation-filters="sRGB">
<feFlood flood-opacity="0" result="BackgroundImageFix"/>
<feColorMatrix in="SourceAlpha" type="matrix" values="0 0 0 0 0 0 0 0 0 0 0 0 0 0 0 0 0 0 127 0"/>
<feOffset dy="4"/>
<feGaussianBlur stdDeviation="2"/>
<feColorMatrix type="matrix" values="0 0 0 0 0.8 0 0 0 0 0.254902 0 0 0 0 0.454902 0 0 0 0.2 0"/>
<feBlend mode="normal" in2="BackgroundImageFix" result="effect1_dropShadow"/>
<feBlend mode="normal" in="SourceGraphic" in2="effect1_dropShadow" result="shape"/>
</filter>
<linearGradient id="paint0_linear" x1="18" y1="0" x2="18" y2="24" gradientUnits="userSpaceOnUse">
<stop stop-color="#E31F67"/>
<stop offset="1" stop-color="#D33871"/>
</linearGradient>
</defs>
</svg>
