<svg width="108" height="96" viewBox="0 0 108 96" fill="none" xmlns="http://www.w3.org/2000/svg">
<g filter="url(#filter0_d)">
<path d="M54 0C57.2489 0 60.3647 1.29062 62.6621 3.58794C64.9594 5.88526 66.25 9.0011 66.25 12.25C66.25 15.4989 64.9594 18.6147 62.6621 20.9121C60.3647 23.2094 57.2489 24.5 54 24.5C50.7511 24.5 47.6353 23.2094 45.3379 20.9121C43.0406 18.6147 41.75 15.4989 41.75 12.25C41.75 9.0011 43.0406 5.88526 45.3379 3.58794C47.6353 1.29062 50.7511 0 54 0ZM29.5 8.75C31.46 8.75 33.28 9.275 34.855 10.22C34.33 15.225 35.8 20.195 38.81 24.08C37.06 27.44 33.56 29.75 29.5 29.75C26.7152 29.75 24.0445 28.6438 22.0754 26.6746C20.1062 24.7055 19 22.0348 19 19.25C19 16.4652 20.1062 13.7945 22.0754 11.8254C24.0445 9.85625 26.7152 8.75 29.5 8.75ZM78.5 8.75C81.2848 8.75 83.9555 9.85625 85.9246 11.8254C87.8938 13.7945 89 16.4652 89 19.25C89 22.0348 87.8938 24.7055 85.9246 26.6746C83.9555 28.6438 81.2848 29.75 78.5 29.75C74.44 29.75 70.94 27.44 69.19 24.08C72.2416 20.1405 73.658 15.1767 73.145 10.22C74.72 9.275 76.54 8.75 78.5 8.75ZM31.25 44.625C31.25 37.38 41.435 31.5 54 31.5C66.565 31.5 76.75 37.38 76.75 44.625C76.75 44.625 77.0508 48.377 76.75 50.75C75.2212 62.8108 66.1573 72 54 72C41.8427 72 32.7788 62.8108 31.25 50.75C30.9492 48.377 31.25 44.625 31.25 44.625ZM12 50.75V45.5C12 40.635 18.615 36.54 27.575 35.35C25.51 37.73 24.25 41.02 24.25 44.625C24.25 48.23 27.575 61.5 27.575 61.5L12 50.75ZM96 50.75L79.5 61.5C79.5 61.5 83.75 48.23 83.75 44.625C83.75 41.02 82.49 37.73 80.425 35.35C89.385 36.54 96 40.635 96 45.5V50.75Z" fill="url(#paint0_linear)"/>
</g>
<defs>
<filter id="filter0_d" x="-1.90735e-06" y="0" width="108" height="96" filterUnits="userSpaceOnUse" color-interpolation-filters="sRGB">
<feFlood flood-opacity="0" result="BackgroundImageFix"/>
<feColorMatrix in="SourceAlpha" type="matrix" values="0 0 0 0 0 0 0 0 0 0 0 0 0 0 0 0 0 0 127 0"/>
<feOffset dy="12"/>
<feGaussianBlur stdDeviation="6"/>
<feColorMatrix type="matrix" values="0 0 0 0 0.8 0 0 0 0 0.254902 0 0 0 0 0.454902 0 0 0 0.2 0"/>
<feBlend mode="normal" in2="BackgroundImageFix" result="effect1_dropShadow"/>
<feBlend mode="normal" in="SourceGraphic" in2="effect1_dropShadow" result="shape"/>
</filter>
<linearGradient id="paint0_linear" x1="54" y1="0" x2="54" y2="72" gradientUnits="userSpaceOnUse">
<stop stop-color="#E31F67"/>
<stop offset="1" stop-color="#D33871"/>
</linearGradient>
</defs>
</svg>
