<svg width="38" height="38" viewBox="0 0 38 38" fill="none" xmlns="http://www.w3.org/2000/svg">
<g filter="url(#filter0_d)">
<path d="M19 11C14.5885 11 11 14.5889 11 19C11 23.4111 14.5885 27 19 27C23.4115 27 27 23.4111 27 19C27 14.5889 23.4115 11 19 11ZM22.1803 19.2803L17.5137 22.2803C17.459 22.3158 17.3958 22.3333 17.3333 22.3333C17.2787 22.3333 17.2233 22.3197 17.1738 22.2927C17.0664 22.2341 17 22.1221 17 22V16C17 15.8779 17.0664 15.7659 17.1738 15.7073C17.2793 15.6494 17.4115 15.653 17.5137 15.7197L22.1803 18.7197C22.2754 18.7809 22.3333 18.8867 22.3333 19C22.3333 19.1133 22.2754 19.2191 22.1803 19.2803Z" fill="white"/>
</g>
<defs>
<filter id="filter0_d" x="0" y="0" width="38" height="38" filterUnits="userSpaceOnUse" color-interpolation-filters="sRGB">
<feFlood flood-opacity="0" result="BackgroundImageFix"/>
<feColorMatrix in="SourceAlpha" type="matrix" values="0 0 0 0 0 0 0 0 0 0 0 0 0 0 0 0 0 0 127 0"/>
<feOffset/>
<feGaussianBlur stdDeviation="5.5"/>
<feColorMatrix type="matrix" values="0 0 0 0 0 0 0 0 0 0 0 0 0 0 0 0 0 0 0.25 0"/>
<feBlend mode="normal" in2="BackgroundImageFix" result="effect1_dropShadow"/>
<feBlend mode="normal" in="SourceGraphic" in2="effect1_dropShadow" result="shape"/>
</filter>
</defs>
</svg>
