<svg width="28" height="33" viewBox="0 0 28 33" fill="none" xmlns="http://www.w3.org/2000/svg">
<g filter="url(#filter0_d)">
<path d="M13.8182 0.611328L4 4.97496V11.5204C4 17.575 8.18909 23.2368 13.8182 24.6113C19.4473 23.2368 23.6364 17.575 23.6364 11.5204V4.97496L13.8182 0.611328ZM13.8182 7.15678C15.3455 7.15678 16.8727 8.35678 16.8727 9.88406V11.5204C17.5273 11.5204 18.1818 12.175 18.1818 12.9386V16.7568C18.1818 17.4113 17.5273 18.0659 16.7636 18.0659H10.7636C10.1091 18.0659 9.45455 17.4113 9.45455 16.6477V12.8295C9.45455 12.175 10.1091 11.5204 10.7636 11.5204V9.88406C10.7636 8.35678 12.2909 7.15678 13.8182 7.15678ZM13.8182 8.46587C12.9455 8.46587 12.1818 9.01133 12.1818 9.88406V11.5204H15.4545V9.88406C15.4545 9.01133 14.6909 8.46587 13.8182 8.46587Z" fill="url(#paint0_linear)"/>
</g>
<defs>
<filter id="filter0_d" x="0" y="0.611328" width="27.6364" height="32" filterUnits="userSpaceOnUse" color-interpolation-filters="sRGB">
<feFlood flood-opacity="0" result="BackgroundImageFix"/>
<feColorMatrix in="SourceAlpha" type="matrix" values="0 0 0 0 0 0 0 0 0 0 0 0 0 0 0 0 0 0 127 0"/>
<feOffset dy="4"/>
<feGaussianBlur stdDeviation="2"/>
<feColorMatrix type="matrix" values="0 0 0 0 0.313725 0 0 0 0 0.431372 0 0 0 0 0.905882 0 0 0 0.2 0"/>
<feBlend mode="normal" in2="BackgroundImageFix" result="effect1_dropShadow"/>
<feBlend mode="normal" in="SourceGraphic" in2="effect1_dropShadow" result="shape"/>
</filter>
<linearGradient id="paint0_linear" x1="13.8182" y1="0.611328" x2="13.8182" y2="24.6113" gradientUnits="userSpaceOnUse">
<stop stop-color="#5071E6"/>
<stop offset="1" stop-color="#5068E9"/>
</linearGradient>
</defs>
</svg>
