<svg width="102" height="102" viewBox="0 0 102 102" fill="none" xmlns="http://www.w3.org/2000/svg">
<g clip-path="url(#clip0)">
<g filter="url(#filter0_d)">
<path d="M50.4545 15L21 28.0909V47.7273C21 65.8909 33.5673 82.8764 50.4545 87C67.3418 82.8764 79.9091 65.8909 79.9091 47.7273V28.0909L50.4545 15ZM50.4545 34.6364C55.0364 34.6364 59.6182 38.2364 59.6182 42.8182V47.7273C61.5818 47.7273 63.5455 49.6909 63.5455 51.9818V63.4364C63.5455 65.4 61.5818 67.3636 59.2909 67.3636H41.2909C39.3273 67.3636 37.3636 65.4 37.3636 63.1091V51.6545C37.3636 49.6909 39.3273 47.7273 41.2909 47.7273V42.8182C41.2909 38.2364 45.8727 34.6364 50.4545 34.6364ZM50.4545 38.5636C47.8364 38.5636 45.5455 40.2 45.5455 42.8182V47.7273H55.3636V42.8182C55.3636 40.2 53.0727 38.5636 50.4545 38.5636Z" fill="url(#paint0_linear)"/>
</g>
</g>
<defs>
<filter id="filter0_d" x="9" y="15" width="82.9091" height="96" filterUnits="userSpaceOnUse" color-interpolation-filters="sRGB">
<feFlood flood-opacity="0" result="BackgroundImageFix"/>
<feColorMatrix in="SourceAlpha" type="matrix" values="0 0 0 0 0 0 0 0 0 0 0 0 0 0 0 0 0 0 127 0"/>
<feOffset dy="12"/>
<feGaussianBlur stdDeviation="6"/>
<feColorMatrix type="matrix" values="0 0 0 0 0.313725 0 0 0 0 0.431372 0 0 0 0 0.905882 0 0 0 0.2 0"/>
<feBlend mode="normal" in2="BackgroundImageFix" result="effect1_dropShadow"/>
<feBlend mode="normal" in="SourceGraphic" in2="effect1_dropShadow" result="shape"/>
</filter>
<linearGradient id="paint0_linear" x1="50.4545" y1="15" x2="50.4545" y2="87" gradientUnits="userSpaceOnUse">
<stop stop-color="#5071E6"/>
<stop offset="1" stop-color="#5068E9"/>
</linearGradient>
<clipPath id="clip0">
<rect width="102" height="102" fill="white"/>
</clipPath>
</defs>
</svg>
