<svg width="83" height="87" viewBox="0 0 83 87" fill="none" xmlns="http://www.w3.org/2000/svg">
<g filter="url(#filter0_d)">
<path d="M41.4545 0L12 13.0909V32.7273C12 50.8909 24.5673 67.8764 41.4545 72C58.3418 67.8764 70.9091 50.8909 70.9091 32.7273V13.0909L41.4545 0ZM41.4545 19.6364C46.0364 19.6364 50.6182 23.2364 50.6182 27.8182V32.7273C52.5818 32.7273 54.5455 34.6909 54.5455 36.9818V48.4364C54.5455 50.4 52.5818 52.3636 50.2909 52.3636H32.2909C30.3273 52.3636 28.3636 50.4 28.3636 48.1091V36.6545C28.3636 34.6909 30.3273 32.7273 32.2909 32.7273V27.8182C32.2909 23.2364 36.8727 19.6364 41.4545 19.6364ZM41.4545 23.5636C38.8364 23.5636 36.5455 25.2 36.5455 27.8182V32.7273H46.3636V27.8182C46.3636 25.2 44.0727 23.5636 41.4545 23.5636Z" fill="url(#paint0_linear)"/>
</g>
<defs>
<filter id="filter0_d" x="0" y="0" width="82.9091" height="96" filterUnits="userSpaceOnUse" color-interpolation-filters="sRGB">
<feFlood flood-opacity="0" result="BackgroundImageFix"/>
<feColorMatrix in="SourceAlpha" type="matrix" values="0 0 0 0 0 0 0 0 0 0 0 0 0 0 0 0 0 0 127 0"/>
<feOffset dy="12"/>
<feGaussianBlur stdDeviation="6"/>
<feColorMatrix type="matrix" values="0 0 0 0 0.313725 0 0 0 0 0.431372 0 0 0 0 0.905882 0 0 0 0.2 0"/>
<feBlend mode="normal" in2="BackgroundImageFix" result="effect1_dropShadow"/>
<feBlend mode="normal" in="SourceGraphic" in2="effect1_dropShadow" result="shape"/>
</filter>
<linearGradient id="paint0_linear" x1="41.4545" y1="0" x2="41.4545" y2="72" gradientUnits="userSpaceOnUse">
<stop stop-color="#5071E6"/>
<stop offset="1" stop-color="#5068E9"/>
</linearGradient>
</defs>
</svg>
