<svg width="96" height="106" viewBox="0 0 96 106" fill="none" xmlns="http://www.w3.org/2000/svg">
<g filter="url(#filter0_d)">
<path d="M48 0.499512L12 16.4995V40.4995C12 62.6995 27.36 83.4595 48 88.4995C68.64 83.4595 84 62.6995 84 40.4995V16.4995L48 0.499512ZM48 16.4995C51.1826 16.4995 54.2349 17.7638 56.4853 20.0142C58.7357 22.2647 60 25.3169 60 28.4995C60 31.6821 58.7357 34.7344 56.4853 36.9848C54.2349 39.2352 51.1826 40.4995 48 40.4995C44.8174 40.4995 41.7652 39.2352 39.5147 36.9848C37.2643 34.7344 36 31.6821 36 28.4995C36 25.3169 37.2643 22.2647 39.5147 20.0142C41.7652 17.7638 44.8174 16.4995 48 16.4995V16.4995ZM68.52 64.4995C63.6735 71.9182 56.4313 77.4522 48 80.1795C39.5687 77.4522 32.3265 71.9182 27.48 64.4995C26.12 62.4995 24.96 60.4995 24 58.3795C24 51.7795 34.84 46.3795 48 46.3795C61.16 46.3795 72 51.6595 72 58.3795C71.04 60.4995 69.88 62.4995 68.52 64.4995Z" fill="url(#paint0_linear)"/>
</g>
<defs>
<filter id="filter0_d" x="-1.90735e-06" y="0.499512" width="96" height="112" filterUnits="userSpaceOnUse" color-interpolation-filters="sRGB">
<feFlood flood-opacity="0" result="BackgroundImageFix"/>
<feColorMatrix in="SourceAlpha" type="matrix" values="0 0 0 0 0 0 0 0 0 0 0 0 0 0 0 0 0 0 127 0"/>
<feOffset dy="12"/>
<feGaussianBlur stdDeviation="6"/>
<feColorMatrix type="matrix" values="0 0 0 0 0.619608 0 0 0 0 0.294118 0 0 0 0 0.823529 0 0 0 0.2 0"/>
<feBlend mode="normal" in2="BackgroundImageFix" result="effect1_dropShadow"/>
<feBlend mode="normal" in="SourceGraphic" in2="effect1_dropShadow" result="shape"/>
</filter>
<linearGradient id="paint0_linear" x1="48" y1="0.499512" x2="48" y2="88.4995" gradientUnits="userSpaceOnUse">
<stop stop-color="#9E4BD2"/>
<stop offset="1" stop-color="#9222B9"/>
</linearGradient>
</defs>
</svg>
