<svg width="32" height="32" viewBox="0 0 32 32" fill="none" xmlns="http://www.w3.org/2000/svg">
<g filter="url(#filter0_d)">
<path d="M25.3333 0C26.0406 0 26.7189 0.280951 27.219 0.781048C27.719 1.28115 28 1.95942 28 2.66667V21.3333C28 22.0406 27.719 22.7189 27.219 23.219C26.7189 23.719 26.0406 24 25.3333 24H6.66667C5.95942 24 5.28115 23.719 4.78105 23.219C4.28095 22.7189 4 22.0406 4 21.3333V2.66667C4 1.95942 4.28095 1.28115 4.78105 0.781048C5.28115 0.280951 5.95942 0 6.66667 0H25.3333ZM20.7733 18.6667L19.5067 13.2267L23.72 9.58667L18.16 9.10667L16 4L13.84 9.12L8.28 9.6L12.4933 13.24L11.2267 18.6667L16 15.7867L20.7733 18.6667Z" fill="url(#paint0_linear)"/>
</g>
<defs>
<filter id="filter0_d" x="0" y="0" width="32" height="32" filterUnits="userSpaceOnUse" color-interpolation-filters="sRGB">
<feFlood flood-opacity="0" result="BackgroundImageFix"/>
<feColorMatrix in="SourceAlpha" type="matrix" values="0 0 0 0 0 0 0 0 0 0 0 0 0 0 0 0 0 0 127 0"/>
<feOffset dy="4"/>
<feGaussianBlur stdDeviation="2"/>
<feColorMatrix type="matrix" values="0 0 0 0 0.313725 0 0 0 0 0.431372 0 0 0 0 0.905882 0 0 0 0.2 0"/>
<feBlend mode="normal" in2="BackgroundImageFix" result="effect1_dropShadow"/>
<feBlend mode="normal" in="SourceGraphic" in2="effect1_dropShadow" result="shape"/>
</filter>
<linearGradient id="paint0_linear" x1="16" y1="0" x2="16" y2="24" gradientUnits="userSpaceOnUse">
<stop stop-color="#5071E6"/>
<stop offset="1" stop-color="#5068E9"/>
</linearGradient>
</defs>
</svg>
