<svg width="96" height="97" viewBox="0 0 96 97" fill="none" xmlns="http://www.w3.org/2000/svg">
<g filter="url(#filter0_d)">
<path d="M76 0.500488C78.1217 0.500488 80.1566 1.34334 81.6569 2.84363C83.1572 4.34393 84 6.37876 84 8.50049V64.5005C84 66.6222 83.1572 68.6571 81.6569 70.1573C80.1566 71.6576 78.1217 72.5005 76 72.5005H20C17.8783 72.5005 15.8434 71.6576 14.3431 70.1573C12.8429 68.6571 12 66.6222 12 64.5005V8.50049C12 6.37876 12.8429 4.34393 14.3431 2.84363C15.8434 1.34334 17.8783 0.500488 20 0.500488H76ZM62.32 56.5005L58.52 40.1805L71.16 29.2605L54.48 27.8205L48 12.5005L41.52 27.8605L24.84 29.3005L37.48 40.2205L33.68 56.5005L48 47.8605L62.32 56.5005Z" fill="url(#paint0_linear)"/>
</g>
<defs>
<filter id="filter0_d" x="-1.90735e-06" y="0.500488" width="96" height="96" filterUnits="userSpaceOnUse" color-interpolation-filters="sRGB">
<feFlood flood-opacity="0" result="BackgroundImageFix"/>
<feColorMatrix in="SourceAlpha" type="matrix" values="0 0 0 0 0 0 0 0 0 0 0 0 0 0 0 0 0 0 127 0"/>
<feOffset dy="12"/>
<feGaussianBlur stdDeviation="6"/>
<feColorMatrix type="matrix" values="0 0 0 0 0.313725 0 0 0 0 0.431372 0 0 0 0 0.905882 0 0 0 0.2 0"/>
<feBlend mode="normal" in2="BackgroundImageFix" result="effect1_dropShadow"/>
<feBlend mode="normal" in="SourceGraphic" in2="effect1_dropShadow" result="shape"/>
</filter>
<linearGradient id="paint0_linear" x1="48" y1="0.500488" x2="48" y2="72.5005" gradientUnits="userSpaceOnUse">
<stop stop-color="#5071E6"/>
<stop offset="1" stop-color="#5068E9"/>
</linearGradient>
</defs>
</svg>
