<svg width="96" height="84" viewBox="0 0 96 84" fill="none" xmlns="http://www.w3.org/2000/svg">
<g filter="url(#filter0_d)">
<path d="M73.5234 50.2071C70.6172 54.2614 66.9258 57.4671 62.4492 59.8243C57.9727 62.1814 53.1562 63.36 48 63.36C42.8438 63.36 38.0273 62.1814 33.5508 59.8243C29.0742 57.4671 25.3828 54.2614 22.4766 50.2071C15.4922 46.7186 12 40.5429 12 31.68C12 22.8171 15.4922 16.6414 22.4766 13.1529C25.3828 9.09857 29.0742 5.89286 33.5508 3.53571C38.0273 1.17857 42.8438 0 48 0C53.1562 0 57.9727 1.17857 62.4492 3.53571C66.9258 5.89286 70.6172 9.09857 73.5234 13.1529C80.5078 16.6414 84 22.8171 84 31.68C84 40.5429 80.5078 46.7186 73.5234 50.2071ZM48 13.5771C43.875 13.5771 40.2656 13.7421 37.1719 14.0721C34.0781 14.4021 31.1836 14.9796 28.4883 15.8046C25.793 16.6296 23.6016 17.7139 21.9141 19.0575C20.2266 20.4011 18.9023 22.1336 17.9414 24.255C16.9805 26.3764 16.5 28.8514 16.5 31.68C16.5 35.8286 17.4727 39.1757 19.418 41.7214C21.3633 44.2671 24.2578 46.1764 28.1016 47.4493L38.0156 37.4786C38.8594 36.5829 39.9492 36.135 41.2852 36.135C42.6211 36.135 43.7109 36.5829 44.5547 37.4786L51.375 44.3379L62.7656 32.9529C63.6094 32.0571 64.6992 31.6093 66.0352 31.6093C67.3711 31.6093 68.4609 32.0571 69.3047 32.9529L77.1797 40.8729C78.7266 38.4214 79.5 35.3571 79.5 31.68C79.5 28.8514 79.0195 26.3764 78.0586 24.255C77.0977 22.1336 75.7734 20.4011 74.0859 19.0575C72.3984 17.7139 70.207 16.6296 67.5117 15.8046C64.8164 14.9796 61.9219 14.4021 58.8281 14.0721C55.7344 13.7421 52.125 13.5771 48 13.5771ZM30 36.2057C28.125 36.2057 26.5312 35.5457 25.2188 34.2257C23.9062 32.9057 23.25 31.3029 23.25 29.4171C23.25 27.5314 23.9062 25.9286 25.2188 24.6086C26.5312 23.2886 28.125 22.6286 30 22.6286C31.875 22.6286 33.4688 23.2886 34.7812 24.6086C36.0938 25.9286 36.75 27.5314 36.75 29.4171C36.75 31.3029 36.0938 32.9057 34.7812 34.2257C33.4688 35.5457 31.875 36.2057 30 36.2057Z" fill="url(#paint0_linear)"/>
</g>
<defs>
<filter id="filter0_d" x="0" y="0" width="96" height="87.36" filterUnits="userSpaceOnUse" color-interpolation-filters="sRGB">
<feFlood flood-opacity="0" result="BackgroundImageFix"/>
<feColorMatrix in="SourceAlpha" type="matrix" values="0 0 0 0 0 0 0 0 0 0 0 0 0 0 0 0 0 0 127 0"/>
<feOffset dy="12"/>
<feGaussianBlur stdDeviation="6"/>
<feColorMatrix type="matrix" values="0 0 0 0 0.313725 0 0 0 0 0.431372 0 0 0 0 0.905882 0 0 0 0.2 0"/>
<feBlend mode="normal" in2="BackgroundImageFix" result="effect1_dropShadow"/>
<feBlend mode="normal" in="SourceGraphic" in2="effect1_dropShadow" result="shape"/>
</filter>
<linearGradient id="paint0_linear" x1="48" y1="0" x2="48" y2="63.36" gradientUnits="userSpaceOnUse">
<stop stop-color="#5071E6"/>
<stop offset="1" stop-color="#5068E9"/>
</linearGradient>
</defs>
</svg>
