<svg width="102" height="102" viewBox="0 0 102 102" fill="none" xmlns="http://www.w3.org/2000/svg">
<g clip-path="url(#clip0)">
<g filter="url(#filter0_d)">
<path d="M76.5234 68.2071C73.6172 72.2614 69.9258 75.4671 65.4492 77.8243C60.9727 80.1814 56.1562 81.36 51 81.36C45.8438 81.36 41.0273 80.1814 36.5508 77.8243C32.0742 75.4671 28.3828 72.2614 25.4766 68.2071C18.4922 64.7186 15 58.5429 15 49.68C15 40.8171 18.4922 34.6414 25.4766 31.1529C28.3828 27.0986 32.0742 23.8929 36.5508 21.5357C41.0273 19.1786 45.8438 18 51 18C56.1562 18 60.9727 19.1786 65.4492 21.5357C69.9258 23.8929 73.6172 27.0986 76.5234 31.1529C83.5078 34.6414 87 40.8171 87 49.68C87 58.5429 83.5078 64.7186 76.5234 68.2071ZM51 31.5771C46.875 31.5771 43.2656 31.7421 40.1719 32.0721C37.0781 32.4021 34.1836 32.9796 31.4883 33.8046C28.793 34.6296 26.6016 35.7139 24.9141 37.0575C23.2266 38.4011 21.9023 40.1336 20.9414 42.255C19.9805 44.3764 19.5 46.8514 19.5 49.68C19.5 53.8286 20.4727 57.1757 22.418 59.7214C24.3633 62.2671 27.2578 64.1764 31.1016 65.4493L41.0156 55.4786C41.8594 54.5829 42.9492 54.135 44.2852 54.135C45.6211 54.135 46.7109 54.5829 47.5547 55.4786L54.375 62.3379L65.7656 50.9529C66.6094 50.0571 67.6992 49.6093 69.0352 49.6093C70.3711 49.6093 71.4609 50.0571 72.3047 50.9529L80.1797 58.8729C81.7266 56.4214 82.5 53.3571 82.5 49.68C82.5 46.8514 82.0195 44.3764 81.0586 42.255C80.0977 40.1336 78.7734 38.4011 77.0859 37.0575C75.3984 35.7139 73.207 34.6296 70.5117 33.8046C67.8164 32.9796 64.9219 32.4021 61.8281 32.0721C58.7344 31.7421 55.125 31.5771 51 31.5771ZM33 54.2057C31.125 54.2057 29.5312 53.5457 28.2188 52.2257C26.9062 50.9057 26.25 49.3029 26.25 47.4171C26.25 45.5314 26.9062 43.9286 28.2188 42.6086C29.5312 41.2886 31.125 40.6286 33 40.6286C34.875 40.6286 36.4688 41.2886 37.7812 42.6086C39.0938 43.9286 39.75 45.5314 39.75 47.4171C39.75 49.3029 39.0938 50.9057 37.7812 52.2257C36.4688 53.5457 34.875 54.2057 33 54.2057Z" fill="url(#paint0_linear)"/>
</g>
</g>
<defs>
<filter id="filter0_d" x="3" y="18" width="96" height="87.36" filterUnits="userSpaceOnUse" color-interpolation-filters="sRGB">
<feFlood flood-opacity="0" result="BackgroundImageFix"/>
<feColorMatrix in="SourceAlpha" type="matrix" values="0 0 0 0 0 0 0 0 0 0 0 0 0 0 0 0 0 0 127 0"/>
<feOffset dy="12"/>
<feGaussianBlur stdDeviation="6"/>
<feColorMatrix type="matrix" values="0 0 0 0 0.313725 0 0 0 0 0.431372 0 0 0 0 0.905882 0 0 0 0.2 0"/>
<feBlend mode="normal" in2="BackgroundImageFix" result="effect1_dropShadow"/>
<feBlend mode="normal" in="SourceGraphic" in2="effect1_dropShadow" result="shape"/>
</filter>
<linearGradient id="paint0_linear" x1="51" y1="18" x2="51" y2="81.36" gradientUnits="userSpaceOnUse">
<stop stop-color="#5071E6"/>
<stop offset="1" stop-color="#5068E9"/>
</linearGradient>
<clipPath id="clip0">
<rect width="102" height="102" fill="white"/>
</clipPath>
</defs>
</svg>
