<svg width="32" height="30" viewBox="0 0 32 30" fill="none" xmlns="http://www.w3.org/2000/svg">
<g filter="url(#filter0_d)">
<path d="M24.5078 17.347C23.5391 18.6985 22.3086 19.767 20.8164 20.5528C19.3242 21.3385 17.7188 21.7313 16 21.7313C14.2812 21.7313 12.6758 21.3385 11.1836 20.5528C9.69141 19.767 8.46094 18.6985 7.49219 17.347C5.16406 16.1842 4 14.1256 4 11.1713C4 8.21704 5.16406 6.15847 7.49219 4.99561C8.46094 3.64419 9.69141 2.57561 11.1836 1.7899C12.6758 1.00419 14.2812 0.611328 16 0.611328C17.7188 0.611328 19.3242 1.00419 20.8164 1.7899C22.3086 2.57561 23.5391 3.64419 24.5078 4.99561C26.8359 6.15847 28 8.21704 28 11.1713C28 14.1256 26.8359 16.1842 24.5078 17.347ZM16 5.13704C14.625 5.13704 13.4219 5.19204 12.3906 5.30204C11.3594 5.41204 10.3945 5.60454 9.49609 5.87954C8.59766 6.15454 7.86719 6.51597 7.30469 6.96383C6.74219 7.41169 6.30078 7.98919 5.98047 8.69633C5.66016 9.40347 5.5 10.2285 5.5 11.1713C5.5 12.5542 5.82422 13.6699 6.47266 14.5185C7.12109 15.367 8.08594 16.0035 9.36719 16.4278L12.6719 13.1042C12.9531 12.8056 13.3164 12.6563 13.7617 12.6563C14.207 12.6563 14.5703 12.8056 14.8516 13.1042L17.125 15.3906L20.9219 11.5956C21.2031 11.297 21.5664 11.1478 22.0117 11.1478C22.457 11.1478 22.8203 11.297 23.1016 11.5956L25.7266 14.2356C26.2422 13.4185 26.5 12.397 26.5 11.1713C26.5 10.2285 26.3398 9.40347 26.0195 8.69633C25.6992 7.98919 25.2578 7.41169 24.6953 6.96383C24.1328 6.51597 23.4023 6.15454 22.5039 5.87954C21.6055 5.60454 20.6406 5.41204 19.6094 5.30204C18.5781 5.19204 17.375 5.13704 16 5.13704ZM10 12.6799C9.375 12.6799 8.84375 12.4599 8.40625 12.0199C7.96875 11.5799 7.75 11.0456 7.75 10.417C7.75 9.78847 7.96875 9.25419 8.40625 8.81419C8.84375 8.37419 9.375 8.15419 10 8.15419C10.625 8.15419 11.1562 8.37419 11.5938 8.81419C12.0312 9.25419 12.25 9.78847 12.25 10.417C12.25 11.0456 12.0312 11.5799 11.5938 12.0199C11.1562 12.4599 10.625 12.6799 10 12.6799Z" fill="url(#paint0_linear)"/>
</g>
<defs>
<filter id="filter0_d" x="0" y="0.611328" width="32" height="29.12" filterUnits="userSpaceOnUse" color-interpolation-filters="sRGB">
<feFlood flood-opacity="0" result="BackgroundImageFix"/>
<feColorMatrix in="SourceAlpha" type="matrix" values="0 0 0 0 0 0 0 0 0 0 0 0 0 0 0 0 0 0 127 0"/>
<feOffset dy="4"/>
<feGaussianBlur stdDeviation="2"/>
<feColorMatrix type="matrix" values="0 0 0 0 0.313725 0 0 0 0 0.431372 0 0 0 0 0.905882 0 0 0 0.2 0"/>
<feBlend mode="normal" in2="BackgroundImageFix" result="effect1_dropShadow"/>
<feBlend mode="normal" in="SourceGraphic" in2="effect1_dropShadow" result="shape"/>
</filter>
<linearGradient id="paint0_linear" x1="16" y1="0.611328" x2="16" y2="21.7313" gradientUnits="userSpaceOnUse">
<stop stop-color="#5071E6"/>
<stop offset="1" stop-color="#5068E9"/>
</linearGradient>
</defs>
</svg>
