<svg width="768" height="436" viewBox="0 0 768 436" fill="#ffffff" xmlns="http://www.w3.org/2000/svg" xmlns:xlink="http://www.w3.org/1999/xlink">
<path d="M-44 145.114C-44 145.114 220.358 0.918993 473.754 0.918993C639.007 -6.93319 768 38.1149 768 38.1149V421.559C768 421.559 569.988 453.183 362.744 421.559C155.501 389.935 -44 421.559 -44 421.559V145.114Z" />
<path d="M-44 145.114C-44 145.114 220.358 0.918993 473.754 0.918993C639.007 -6.93319 768 38.1149 768 38.1149V421.559C768 421.559 569.988 453.183 362.744 421.559C155.501 389.935 -44 421.559 -44 421.559V145.114Z" style="mix-blend-mode:multiply"/>
<path d="M-44 145.114C-44 145.114 220.358 0.918993 473.754 0.918993C639.007 -6.93319 768 38.1149 768 38.1149V421.559C768 421.559 569.988 453.183 362.744 421.559C155.501 389.935 -44 421.559 -44 421.559V145.114Z" />

</svg>
