<svg width="768" height="482" viewBox="0 0 768 482" fill="#ffffff" xmlns="http://www.w3.org/2000/svg" xmlns:xlink="http://www.w3.org/1999/xlink">
<path d="M1022 361.574V149.863C831.291 71.1093 487.951 -1.59526 261.576 0.665637C68.3641 2.59531 -78 93.9389 -78 93.9389V450.462C-78 450.462 74.5475 475.713 261.576 481.549C384.352 485.38 459.527 394.118 676.792 361.574C894.056 329.03 1022 361.574 1022 361.574Z" />
<path d="M1022 361.574V149.863C831.291 71.1093 487.951 -1.59526 261.576 0.665637C68.3641 2.59531 -78 93.9389 -78 93.9389V450.462C-78 450.462 74.5475 475.713 261.576 481.549C384.352 485.38 459.527 394.118 676.792 361.574C894.056 329.03 1022 361.574 1022 361.574Z"  style="mix-blend-mode:multiply"/>
<path d="M1022 361.574V149.863C831.291 71.1093 487.951 -1.59526 261.576 0.665637C68.3641 2.59531 -78 93.9389 -78 93.9389V450.462C-78 450.462 74.5475 475.713 261.576 481.549C384.352 485.38 459.527 394.118 676.792 361.574C894.056 329.03 1022 361.574 1022 361.574Z" />

</svg>
