<svg  viewBox="0 0 21 20"  xmlns="http://www.w3.org/2000/svg">
<path d="M10.5 0C4.72499 0 0 4.50803 0 10.0602C0 15.0803 3.84299 19.247 8.86199 20V12.9719H6.19499V10.0602H8.86199V7.84137C8.86199 5.32129 10.4265 3.93574 12.831 3.93574C13.9755 3.93574 15.1725 4.12651 15.1725 4.12651V6.60643H13.8495C12.5475 6.60643 12.138 7.37952 12.138 8.17269V10.0602H15.057L14.5845 12.9719H12.138V20C14.6122 19.6264 16.8653 18.4192 18.4904 16.5964C20.1155 14.7737 21.0056 12.4555 21 10.0602C21 4.50803 16.275 0 10.5 0Z" />
</svg>
