<svg width="414" height="499" viewBox="0 0 414 499" fill="#ffffff" xmlns="http://www.w3.org/2000/svg" xmlns:xlink="http://www.w3.org/1999/xlink">
<path d="M455.5 451.484V77.7788C373.842 -0.974632 242.33 -1.69231 145.4 0.568588C62.6706 2.49826 0 20.7062 0 20.7062L0.000173569 469.78C0.000173569 469.78 65.3182 492.444 145.4 498.28C197.971 502.11 230.16 484.028 323.188 451.484C416.217 418.94 455.5 451.484 455.5 451.484Z" />
<path d="M455.5 451.484V77.7788C373.842 -0.974632 242.33 -1.69231 145.4 0.568588C62.6706 2.49826 0 20.7062 0 20.7062L0.000173569 469.78C0.000173569 469.78 65.3182 492.444 145.4 498.28C197.971 502.11 230.16 484.028 323.188 451.484C416.217 418.94 455.5 451.484 455.5 451.484Z" style="mix-blend-mode:multiply"/>
<path d="M455.5 451.484V77.7788C373.842 -0.974632 242.33 -1.69231 145.4 0.568588C62.6706 2.49826 0 20.7062 0 20.7062L0.000173569 469.78C0.000173569 469.78 65.3182 492.444 145.4 498.28C197.971 502.11 230.16 484.028 323.188 451.484C416.217 418.94 455.5 451.484 455.5 451.484Z"/>

</svg>
