<svg width="414" height="380" viewBox="0 0 414 380" fill="#ffffff" xmlns="http://www.w3.org/2000/svg" xmlns:xlink="http://www.w3.org/1999/xlink">
<path d="M-39 80.4065C-39 80.4065 93.9109 0 235.276 0C376.641 0 414 21.9842 414 21.9842V374.73C414 374.73 303.532 386.587 187.915 374.73C72.2981 362.874 -39 374.73 -39 374.73V80.4065Z" />
<path d="M-39 80.4065C-39 80.4065 93.9109 0 235.276 0C376.641 0 414 21.9842 414 21.9842V374.73C414 374.73 303.532 386.587 187.915 374.73C72.2981 362.874 -39 374.73 -39 374.73V80.4065Z"  style="mix-blend-mode:multiply"/>
<path d="M-39 80.4065C-39 80.4065 93.9109 0 235.276 0C376.641 0 414 21.9842 414 21.9842V374.73C414 374.73 303.532 386.587 187.915 374.73C72.2981 362.874 -39 374.73 -39 374.73V80.4065Z" />

</svg>
