<svg width="96" height="90" viewBox="0 0 96 90" fill="none" xmlns="http://www.w3.org/2000/svg">
<g filter="url(#filter0_d)">
<path d="M48 0C49.736 0 51.4008 0.689608 52.6283 1.91712C53.8558 3.14463 54.5455 4.80949 54.5455 6.54545C54.5455 8.96727 53.2364 11.0945 51.2727 12.2073V16.3636H54.5455C60.6213 16.3636 66.4483 18.7773 70.7446 23.0736C75.0409 27.3698 77.4545 33.1969 77.4545 39.2727H80.7273C81.5953 39.2727 82.4277 39.6175 83.0414 40.2313C83.6552 40.845 84 41.6775 84 42.5455V52.3636C84 53.2316 83.6552 54.0641 83.0414 54.6778C82.4277 55.2916 81.5953 55.6364 80.7273 55.6364H77.4545V58.9091C77.4545 60.6451 76.7649 62.3099 75.5374 63.5374C74.3099 64.7649 72.6451 65.4545 70.9091 65.4545H25.0909C23.3549 65.4545 21.6901 64.7649 20.4626 63.5374C19.2351 62.3099 18.5455 60.6451 18.5455 58.9091V55.6364H15.2727C14.4047 55.6364 13.5723 55.2916 12.9586 54.6778C12.3448 54.0641 12 53.2316 12 52.3636V42.5455C12 41.6775 12.3448 40.845 12.9586 40.2313C13.5723 39.6175 14.4047 39.2727 15.2727 39.2727H18.5455C18.5455 33.1969 20.9591 27.3698 25.2554 23.0736C29.5517 18.7773 35.3787 16.3636 41.4545 16.3636H44.7273V12.2073C42.7636 11.0945 41.4545 8.96727 41.4545 6.54545C41.4545 4.80949 42.1442 3.14463 43.3717 1.91712C44.5992 0.689608 46.264 0 48 0ZM33.2727 36C31.1028 36 29.0217 36.862 27.4873 38.3964C25.9529 39.9308 25.0909 42.0119 25.0909 44.1818C25.0909 46.3518 25.9529 48.4328 27.4873 49.9672C29.0217 51.5016 31.1028 52.3636 33.2727 52.3636C35.4427 52.3636 37.5238 51.5016 39.0581 49.9672C40.5925 48.4328 41.4545 46.3518 41.4545 44.1818C41.4545 42.0119 40.5925 39.9308 39.0581 38.3964C37.5238 36.862 35.4427 36 33.2727 36ZM62.7273 36C60.5573 36 58.4762 36.862 56.9419 38.3964C55.4075 39.9308 54.5455 42.0119 54.5455 44.1818C54.5455 46.3518 55.4075 48.4328 56.9419 49.9672C58.4762 51.5016 60.5573 52.3636 62.7273 52.3636C64.8972 52.3636 66.9783 51.5016 68.5127 49.9672C70.0471 48.4328 70.9091 46.3518 70.9091 44.1818C70.9091 42.0119 70.0471 39.9308 68.5127 38.3964C66.9783 36.862 64.8972 36 62.7273 36Z" fill="url(#paint0_linear)"/>
</g>
<defs>
<filter id="filter0_d" x="0" y="0" width="96" height="89.4545" filterUnits="userSpaceOnUse" color-interpolation-filters="sRGB">
<feFlood flood-opacity="0" result="BackgroundImageFix"/>
<feColorMatrix in="SourceAlpha" type="matrix" values="0 0 0 0 0 0 0 0 0 0 0 0 0 0 0 0 0 0 127 0"/>
<feOffset dy="12"/>
<feGaussianBlur stdDeviation="6"/>
<feColorMatrix type="matrix" values="0 0 0 0 0.313725 0 0 0 0 0.431372 0 0 0 0 0.905882 0 0 0 0.2 0"/>
<feBlend mode="normal" in2="BackgroundImageFix" result="effect1_dropShadow"/>
<feBlend mode="normal" in="SourceGraphic" in2="effect1_dropShadow" result="shape"/>
</filter>
<linearGradient id="paint0_linear" x1="48" y1="0" x2="48" y2="65.4545" gradientUnits="userSpaceOnUse">
<stop stop-color="#5071E6"/>
<stop offset="1" stop-color="#5068E9"/>
</linearGradient>
</defs>
</svg>
