<svg width="96" height="84" viewBox="0 0 96 84" fill="none" xmlns="http://www.w3.org/2000/svg">
<g filter="url(#filter0_d)">
<path d="M42 0.00409091C58.568 0.00409091 72 11.1191 72 24.8318C72 38.5445 58.568 49.6595 42 49.6595C40.4366 49.6608 38.8748 49.5597 37.324 49.3568C30.88 55.9227 23.44 57.0968 16 57.2727V55.665C20.016 53.6605 23.252 50.0114 23.252 45.8386C23.252 45.2577 23.208 44.685 23.124 44.1245C16.34 39.5714 12 32.6209 12 24.8277C12 11.115 25.432 0 42 0V0.00409091ZM74.252 55.6568C74.252 59.2323 76.52 62.3618 80.004 64.08V65.4586C73.56 65.3114 67.644 64.3009 62.056 58.6759C60.736 58.8436 59.38 58.9336 58.004 58.9336C52.036 58.9336 46.54 57.2891 42.152 54.5195C51.196 54.4868 59.732 51.525 66.204 46.1659C69.3596 43.5972 71.9643 40.3915 73.856 36.7486C76.0645 32.4789 77.0411 27.6551 76.672 22.8395C81.208 26.6686 84 31.8927 84 37.6486C84 44.3291 80.24 50.2855 74.36 54.1882C74.2875 54.6742 74.2514 55.1652 74.252 55.6568V55.6568Z" fill="url(#paint0_linear)"/>
</g>
<defs>
<filter id="filter0_d" x="0" y="0" width="96" height="89.4586" filterUnits="userSpaceOnUse" color-interpolation-filters="sRGB">
<feFlood flood-opacity="0" result="BackgroundImageFix"/>
<feColorMatrix in="SourceAlpha" type="matrix" values="0 0 0 0 0 0 0 0 0 0 0 0 0 0 0 0 0 0 127 0"/>
<feOffset dy="12"/>
<feGaussianBlur stdDeviation="6"/>
<feColorMatrix type="matrix" values="0 0 0 0 0.313725 0 0 0 0 0.431372 0 0 0 0 0.905882 0 0 0 0.2 0"/>
<feBlend mode="normal" in2="BackgroundImageFix" result="effect1_dropShadow"/>
<feBlend mode="normal" in="SourceGraphic" in2="effect1_dropShadow" result="shape"/>
</filter>
<linearGradient id="paint0_linear" x1="48" y1="0" x2="48" y2="65.4586" gradientUnits="userSpaceOnUse">
<stop stop-color="#5071E6"/>
<stop offset="1" stop-color="#5068E9"/>
</linearGradient>
</defs>
</svg>
