<svg width="102" height="102" viewBox="0 0 102 102" fill="none" xmlns="http://www.w3.org/2000/svg">
<g clip-path="url(#clip0)">
<g filter="url(#filter0_d)">
<path d="M45 18.0041C61.568 18.0041 75 29.1191 75 42.8318C75 56.5445 61.568 67.6595 45 67.6595C43.4366 67.6608 41.8748 67.5597 40.324 67.3568C33.88 73.9227 26.44 75.0968 19 75.2727V73.665C23.016 71.6605 26.252 68.0114 26.252 63.8386C26.252 63.2577 26.208 62.685 26.124 62.1245C19.34 57.5714 15 50.6209 15 42.8277C15 29.115 28.432 18 45 18V18.0041ZM77.252 73.6568C77.252 77.2323 79.52 80.3618 83.004 82.08V83.4586C76.56 83.3114 70.644 82.3009 65.056 76.6759C63.736 76.8436 62.38 76.9336 61.004 76.9336C55.036 76.9336 49.54 75.2891 45.152 72.5195C54.196 72.4868 62.732 69.525 69.204 64.1659C72.3596 61.5972 74.9643 58.3915 76.856 54.7486C79.0645 50.4789 80.0411 45.6551 79.672 40.8395C84.208 44.6686 87 49.8927 87 55.6486C87 62.3291 83.24 68.2855 77.36 72.1882C77.2875 72.6742 77.2514 73.1652 77.252 73.6568Z" fill="url(#paint0_linear)"/>
</g>
</g>
<defs>
<filter id="filter0_d" x="3" y="18" width="96" height="89.4586" filterUnits="userSpaceOnUse" color-interpolation-filters="sRGB">
<feFlood flood-opacity="0" result="BackgroundImageFix"/>
<feColorMatrix in="SourceAlpha" type="matrix" values="0 0 0 0 0 0 0 0 0 0 0 0 0 0 0 0 0 0 127 0"/>
<feOffset dy="12"/>
<feGaussianBlur stdDeviation="6"/>
<feColorMatrix type="matrix" values="0 0 0 0 0.313725 0 0 0 0 0.431372 0 0 0 0 0.905882 0 0 0 0.2 0"/>
<feBlend mode="normal" in2="BackgroundImageFix" result="effect1_dropShadow"/>
<feBlend mode="normal" in="SourceGraphic" in2="effect1_dropShadow" result="shape"/>
</filter>
<linearGradient id="paint0_linear" x1="51" y1="18" x2="51" y2="83.4586" gradientUnits="userSpaceOnUse">
<stop stop-color="#5071E6"/>
<stop offset="1" stop-color="#5068E9"/>
</linearGradient>
<clipPath id="clip0">
<rect width="102" height="102" fill="white"/>
</clipPath>
</defs>
</svg>
