<svg width="93" height="99" viewBox="0 0 93 99" fill="none" xmlns="http://www.w3.org/2000/svg">
<g filter="url(#filter0_d)">
<path d="M12 17.175V62.5125C12 69.375 17.625 75 24.4875 75H47.325C50.7 75 53.8875 73.65 56.2125 71.25L80.7375 46.35C80.7375 46.35 76.8 42.4875 76.6875 42.45C76.1006 41.9275 75.3623 41.6057 74.58 41.5316C73.7977 41.4574 73.0122 41.6346 72.3375 42.0375C72.225 42.075 58.875 49.725 58.875 49.725V12.4875C58.875 11.2443 58.3811 10.052 57.5021 9.17294C56.623 8.29386 55.4307 7.8 54.1875 7.8C52.9443 7.8 51.752 8.29386 50.8729 9.17294C49.9939 10.052 49.5 11.2443 49.5 12.4875V34.3875H46.3875V4.6875C46.3875 3.4443 45.8936 2.25201 45.0146 1.37294C44.1355 0.49386 42.9432 0 41.7 0C40.4568 0 39.2645 0.49386 38.3854 1.37294C37.5064 2.25201 37.0125 3.4443 37.0125 4.6875V34.3875H33.8625V7.8C33.8625 6.5568 33.3686 5.36451 32.4896 4.48544C31.6105 3.60636 30.4182 3.1125 29.175 3.1125C27.9318 3.1125 26.7395 3.60636 25.8604 4.48544C24.9814 5.36451 24.4875 6.5568 24.4875 7.8V34.3875H21.375V17.175C21.375 15.9318 20.8811 14.7395 20.0021 13.8604C19.123 12.9814 17.9307 12.4875 16.6875 12.4875C15.4443 12.4875 14.252 12.9814 13.3729 13.8604C12.4939 14.7395 12 15.9318 12 17.175V17.175Z" fill="url(#paint0_linear)"/>
</g>
<defs>
<filter id="filter0_d" x="-1.90735e-06" y="0" width="92.7375" height="99" filterUnits="userSpaceOnUse" color-interpolation-filters="sRGB">
<feFlood flood-opacity="0" result="BackgroundImageFix"/>
<feColorMatrix in="SourceAlpha" type="matrix" values="0 0 0 0 0 0 0 0 0 0 0 0 0 0 0 0 0 0 127 0"/>
<feOffset dy="12"/>
<feGaussianBlur stdDeviation="6"/>
<feColorMatrix type="matrix" values="0 0 0 0 0.313725 0 0 0 0 0.431372 0 0 0 0 0.905882 0 0 0 0.2 0"/>
<feBlend mode="normal" in2="BackgroundImageFix" result="effect1_dropShadow"/>
<feBlend mode="normal" in="SourceGraphic" in2="effect1_dropShadow" result="shape"/>
</filter>
<linearGradient id="paint0_linear" x1="45" y1="5.29458e-07" x2="45" y2="75" gradientUnits="userSpaceOnUse">
<stop stop-color="#7E9BFF"/>
<stop offset="1" stop-color="#5068E9"/>
</linearGradient>
</defs>
</svg>
