<svg width="120" height="121" viewBox="0 0 120 121" fill="none" xmlns="http://www.w3.org/2000/svg">
<g clip-path="url(#clip0)">
<g filter="url(#filter0_d)">
<path d="M60 15.4995L24 31.4995V55.4995C24 77.6995 39.36 98.4595 60 103.5C80.64 98.4595 96 77.6995 96 55.4995V31.4995L60 15.4995ZM60 31.4995C63.1826 31.4995 66.2349 32.7638 68.4853 35.0142C70.7357 37.2647 72 40.3169 72 43.4995C72 46.6821 70.7357 49.7344 68.4853 51.9848C66.2349 54.2352 63.1826 55.4995 60 55.4995C56.8174 55.4995 53.7652 54.2352 51.5147 51.9848C49.2643 49.7344 48 46.6821 48 43.4995C48 40.3169 49.2643 37.2647 51.5147 35.0142C53.7652 32.7638 56.8174 31.4995 60 31.4995ZM80.52 79.4995C75.6735 86.9182 68.4313 92.4522 60 95.1795C51.5687 92.4522 44.3265 86.9182 39.48 79.4995C38.12 77.4995 36.96 75.4995 36 73.3795C36 66.7795 46.84 61.3795 60 61.3795C73.16 61.3795 84 66.6595 84 73.3795C83.04 75.4995 81.88 77.4995 80.52 79.4995Z" fill="url(#paint0_linear)"/>
</g>
</g>
<defs>
<filter id="filter0_d" x="12" y="15.4995" width="96" height="112" filterUnits="userSpaceOnUse" color-interpolation-filters="sRGB">
<feFlood flood-opacity="0" result="BackgroundImageFix"/>
<feColorMatrix in="SourceAlpha" type="matrix" values="0 0 0 0 0 0 0 0 0 0 0 0 0 0 0 0 0 0 127 0"/>
<feOffset dy="12"/>
<feGaussianBlur stdDeviation="6"/>
<feColorMatrix type="matrix" values="0 0 0 0 0.619608 0 0 0 0 0.294118 0 0 0 0 0.823529 0 0 0 0.2 0"/>
<feBlend mode="normal" in2="BackgroundImageFix" result="effect1_dropShadow"/>
<feBlend mode="normal" in="SourceGraphic" in2="effect1_dropShadow" result="shape"/>
</filter>
<linearGradient id="paint0_linear" x1="60" y1="15.4995" x2="60" y2="103.5" gradientUnits="userSpaceOnUse">
<stop stop-color="#9E4BD2"/>
<stop offset="1" stop-color="#9222B9"/>
</linearGradient>
<clipPath id="clip0">
<rect width="120" height="120" fill="white" transform="translate(0 0.5)"/>
</clipPath>
</defs>
</svg>
