<svg width="120" height="121" viewBox="0 0 120 121" fill="none" xmlns="http://www.w3.org/2000/svg">
<g clip-path="url(#clip0)">
<g filter="url(#filter0_d)">
<path d="M88 24.5005C90.1217 24.5005 92.1566 25.3433 93.6569 26.8436C95.1572 28.3439 96 30.3788 96 32.5005V88.5005C96 90.6222 95.1572 92.6571 93.6569 94.1573C92.1566 95.6576 90.1217 96.5005 88 96.5005H32C29.8783 96.5005 27.8434 95.6576 26.3431 94.1573C24.8429 92.6571 24 90.6222 24 88.5005V32.5005C24 30.3788 24.8429 28.3439 26.3431 26.8436C27.8434 25.3433 29.8783 24.5005 32 24.5005H88ZM74.32 80.5005L70.52 64.1805L83.16 53.2605L66.48 51.8205L60 36.5005L53.52 51.8605L36.84 53.3005L49.48 64.2205L45.68 80.5005L60 71.8605L74.32 80.5005Z" fill="url(#paint0_linear)"/>
</g>
</g>
<defs>
<filter id="filter0_d" x="12" y="24.5005" width="96" height="96" filterUnits="userSpaceOnUse" color-interpolation-filters="sRGB">
<feFlood flood-opacity="0" result="BackgroundImageFix"/>
<feColorMatrix in="SourceAlpha" type="matrix" values="0 0 0 0 0 0 0 0 0 0 0 0 0 0 0 0 0 0 127 0"/>
<feOffset dy="12"/>
<feGaussianBlur stdDeviation="6"/>
<feColorMatrix type="matrix" values="0 0 0 0 0.313725 0 0 0 0 0.431372 0 0 0 0 0.905882 0 0 0 0.2 0"/>
<feBlend mode="normal" in2="BackgroundImageFix" result="effect1_dropShadow"/>
<feBlend mode="normal" in="SourceGraphic" in2="effect1_dropShadow" result="shape"/>
</filter>
<linearGradient id="paint0_linear" x1="60" y1="24.5005" x2="60" y2="96.5005" gradientUnits="userSpaceOnUse">
<stop stop-color="#5071E6"/>
<stop offset="1" stop-color="#5068E9"/>
</linearGradient>
<clipPath id="clip0">
<rect width="120" height="120" fill="white" transform="translate(0 0.5)"/>
</clipPath>
</defs>
</svg>
