<svg width="1980" height="570" viewBox="0 0 1980 570" fill="#ffffff" xmlns="http://www.w3.org/2000/svg" xmlns:xlink="http://www.w3.org/1999/xlink">
<path d="M0 254.545C0 254.545 644.616 1.11369 1262.5 1.11369C1665.46 -8.40207 1980 46.19 1980 46.19V552.543C1980 552.543 1497.16 590.866 991.815 552.543C486.469 514.219 0 552.543 0 552.543V254.545Z" />
<path d="M0 254.545C0 254.545 644.616 1.11369 1262.5 1.11369C1665.46 -8.40207 1980 46.19 1980 46.19V552.543C1980 552.543 1497.16 590.866 991.815 552.543C486.469 514.219 0 552.543 0 552.543V254.545Z"  style="mix-blend-mode:multiply"/>
<path d="M0 254.545C0 254.545 644.616 1.11369 1262.5 1.11369C1665.46 -8.40207 1980 46.19 1980 46.19V552.543C1980 552.543 1497.16 590.866 991.815 552.543C486.469 514.219 0 552.543 0 552.543V254.545Z" />
</svg>
