<svg width="1980" height="514" viewBox="0 0 1980 514" fill="#fff" xmlns="http://www.w3.org/2000/svg" xmlns:xlink="http://www.w3.org/1999/xlink">
<path d="M1980 390.298V172.223C1636.72 91.1021 1018.71 -2.28616 611.236 0.0426933C263.455 2.03038 0 114.618 0 114.618V481.858C0 481.858 274.586 507.868 611.236 513.879C832.234 517.825 967.549 423.82 1358.62 390.298C1749.7 356.776 1980 390.298 1980 390.298Z" />
<path d="M1980 390.298V172.223C1636.72 91.1021 1018.71 -2.28616 611.236 0.0426933C263.455 2.03038 0 114.618 0 114.618V481.858C0 481.858 274.586 507.868 611.236 513.879C832.234 517.825 967.549 423.82 1358.62 390.298C1749.7 356.776 1980 390.298 1980 390.298Z" style="mix-blend-mode:multiply"/>
<path d="M1980 390.298V172.223C1636.72 91.1021 1018.71 -2.28616 611.236 0.0426933C263.455 2.03038 0 114.618 0 114.618V481.858C0 481.858 274.586 507.868 611.236 513.879C832.234 517.825 967.549 423.82 1358.62 390.298C1749.7 356.776 1980 390.298 1980 390.298Z"/>
</svg>
