<svg viewBox="0 0 21 21"  xmlns="http://www.w3.org/2000/svg">
<path d="M10.5422 6.25479e-05C4.7804 6.25479e-05 0.0844223 4.67255 0.0844223 10.4055C0.0844223 12.243 0.569849 14.028 1.47739 15.603L0 21L5.5402 19.551C7.07035 20.3805 8.79045 20.8215 10.5422 20.8215C16.304 20.8215 21 16.149 21 10.416C21 7.63354 19.9131 5.01905 17.9397 3.05555C16.9722 2.08318 15.8198 1.31221 14.5498 0.787614C13.2797 0.263018 11.9174 -0.00470411 10.5422 6.25479e-05ZM10.5528 1.75356C12.8744 1.75356 15.0482 2.65655 16.6945 4.29455C17.5024 5.09817 18.1429 6.05258 18.5794 7.10304C19.0158 8.1535 19.2395 9.27936 19.2377 10.416C19.2377 15.183 15.3332 19.0575 10.5422 19.0575C8.9804 19.0575 7.45025 18.648 6.1206 17.85L5.80402 17.6715L2.51156 18.5325L3.38744 15.3405L3.17638 15.0045C2.30466 13.6276 1.84358 12.0328 1.84673 10.4055C1.85729 5.63855 5.75126 1.75356 10.5528 1.75356ZM6.83819 5.59655C6.66935 5.59655 6.38442 5.65955 6.14171 5.92204C5.90955 6.18454 5.22362 6.82504 5.22362 8.09554C5.22362 9.37653 6.16281 10.605 6.27889 10.7835C6.42663 10.962 8.13618 13.587 10.7638 14.7C11.3864 14.9835 11.8719 15.141 12.2518 15.2565C12.8744 15.456 13.4442 15.4245 13.898 15.3615C14.4045 15.288 15.4387 14.7315 15.6603 14.1225C15.8819 13.5135 15.8819 12.999 15.8186 12.8835C15.7447 12.7785 15.5759 12.7155 15.3121 12.6C15.0482 12.453 13.7608 11.823 13.5286 11.739C13.2859 11.655 13.1382 11.613 12.9377 11.865C12.7688 12.1275 12.2623 12.7155 12.1146 12.8835C11.9563 13.062 11.8085 13.083 11.5553 12.957C11.2809 12.8205 10.4367 12.5475 9.44472 11.6655C8.66382 10.9725 8.14673 10.122 7.98844 9.85953C7.86181 9.60753 7.97789 9.45003 8.10452 9.33453C8.2206 9.21904 8.38945 9.03004 8.49497 8.87254C8.63216 8.72554 8.67437 8.61004 8.75879 8.44204C8.84321 8.26354 8.801 8.11654 8.73769 7.99054C8.67437 7.87504 8.14673 6.57304 7.92513 6.05854C7.71407 5.55455 7.50301 5.61755 7.33417 5.60705C7.18643 5.60705 7.01759 5.59655 6.83819 5.59655Z" />
</svg>
