<svg viewBox="0 0 20 21" xmlns="http://www.w3.org/2000/svg">
<path d="M13.07 0H6.93C1.33 0 0 1.3965 0 7.2765V13.7235C0 19.6035 1.33 21 6.93 21H13.07C18.67 21 20 19.6035 20 13.7235V7.2765C20 1.3965 18.67 0 13.07 0ZM16.15 14.9835H14.69C14.14 14.9835 13.97 14.511 13 13.4715C12.12 12.6 11.74 12.474 11.53 12.474C11.24 12.474 11.15 12.558 11.15 12.999V14.3745C11.15 14.742 11.04 14.973 10.11 14.973C8.57 14.973 6.86 13.986 5.66 12.1695C3.85 9.5025 3.36 7.4865 3.36 7.0875C3.36 6.867 3.43 6.657 3.85 6.657H5.32C5.69 6.657 5.83 6.825 5.97 7.245C6.69 9.45 7.89 11.34 8.38 11.34C8.57 11.34 8.65 11.2455 8.65 10.7625V8.505C8.6 7.476 8.07 7.3815 8.07 7.014C8.07 6.825 8.21 6.657 8.44 6.657H10.73C11.04 6.657 11.15 6.825 11.15 7.224V10.2585C11.15 10.584 11.28 10.6995 11.38 10.6995C11.56 10.6995 11.72 10.584 12.05 10.227C13.1 8.9985 13.85 7.098 13.85 7.098C13.95 6.8775 14.11 6.6675 14.5 6.6675H15.93C16.37 6.6675 16.47 6.909 16.37 7.2345C16.19 8.127 14.41 10.7625 14.43 10.7625C14.27 11.025 14.21 11.1405 14.43 11.445C14.58 11.6655 15.09 12.1275 15.43 12.537C16.05 13.2825 16.53 13.902 16.66 14.3325C16.77 14.763 16.57 14.9835 16.15 14.9835Z" />
</svg>
