<svg width="1366" height="569" viewBox="0 0 1366 569" fill="#ffffff" xmlns="http://www.w3.org/2000/svg" xmlns:xlink="http://www.w3.org/1999/xlink">
<path d="M0 254.115C0 254.115 444.72 1.11181 871 1.11181C1149 -8.38786 1366 46.1118 1366 46.1118V551.608C1366 551.608 1032.89 589.867 684.252 551.608C335.614 513.349 0 551.608 0 551.608V254.115Z" />
<path d="M0 254.115C0 254.115 444.72 1.11181 871 1.11181C1149 -8.38786 1366 46.1118 1366 46.1118V551.608C1366 551.608 1032.89 589.867 684.252 551.608C335.614 513.349 0 551.608 0 551.608V254.115Z" style="mix-blend-mode:multiply"/>
<path d="M0 254.115C0 254.115 444.72 1.11181 871 1.11181C1149 -8.38786 1366 46.1118 1366 46.1118V551.608C1366 551.608 1032.89 589.867 684.252 551.608C335.614 513.349 0 551.608 0 551.608V254.115Z" />

</svg>
