<svg width="1366" height="522" viewBox="0 0 1366 522" fill="#ffffff" xmlns="http://www.w3.org/2000/svg" xmlns:xlink="http://www.w3.org/1999/xlink">
<g >
<path d="M1367 390.042V172.11C1130 91.0423 703.323 -2.28466 422 0.0426653C181.891 2.02904 0 114.543 0 114.543V481.542C0 481.542 189.575 507.535 422 513.542C574.578 517.485 668 423.542 938 390.042C1208 356.541 1367 390.042 1367 390.042Z" />
<path d="M1367 390.042V172.11C1130 91.0423 703.323 -2.28466 422 0.0426653C181.891 2.02904 0 114.543 0 114.543V481.542C0 481.542 189.575 507.535 422 513.542C574.578 517.485 668 423.542 938 390.042C1208 356.541 1367 390.042 1367 390.042Z"  style="mix-blend-mode:multiply"/>
<path d="M1367 390.042V172.11C1130 91.0423 703.323 -2.28466 422 0.0426653C181.891 2.02904 0 114.543 0 114.543V481.542C0 481.542 189.575 507.535 422 513.542C574.578 517.485 668 423.542 938 390.042C1208 356.541 1367 390.042 1367 390.042Z"/>
</g>

</svg>
